#!OML:ASF E:/inclinewalkrobotboard/Project1/Captureday1/Session1/subject1.ASF
:FULLY-SPECIFIED
:DEGREES
26
root 0 0 0 1.426984489116672 -3.5388335588075837 1.8909556296448116
lowerback 11.967071202571642 0.8928859331869501 -0.09835344099474996
upperback -4.434531214016456 1.1191856853370084 -0.6294635694120002
thorax -11.554427444956765 0.5141053370039697 -0.8685940413898728
lowerneck -6.095226360373427 1.6531460690627757 4.62415695457691
upperneck 18.447337335572442 3.1573330851557633 -8.269918069476176
head 6.779516868724011 1.1636330436550293 -3.1891890907237714
rclavicle -1.7435446549346814E-16 -9.70464784744461E-16
rhumerus 22.22612979489398 15.949612965432733 -46.54156219957086
rradius 74.31253883978988
rwrist 27.89212880761441
rhand -34.85615625517745 -59.76057803420418
rfingers 7.12502
rthumb -8.016084686739687 -89.57308628226033
lclavicle -1.7275582417251526E-16 -9.490128535939453E-16
lhumerus 22.792769356803984 -12.795548486719413 43.632337765642106
lradius 71.32032292267766
lwrist -23.63658290669047
lhand -45.33645554396643 -73.19536371253002
lfingers 7.12502
lthumb -18.09371051243432 -43.97735464130139
rfemur -25.597348259700084 -2.1516818668538518 16.69137510778072
rtibia 54.69246534277422
rfoot -27.318924038582608 -16.464296814004896
rtoes -17.673736073771135
lfemur -21.799026855350288 1.2309924028532435 -18.18125074469688
ltibia 48.636381981506105
lfoot -23.725301266713423 -3.604062183103511
ltoes -15.417911425766782
27
root 0 0 0 1.4261981794669003 -3.5367444646004476 1.8929156747965676
lowerback 11.96676575008581 0.8916567498512422 -0.10109160864927402
upperback -4.433434917725614 1.1172632263091238 -0.6290488329914722
thorax -11.553197742401355 0.5132278539810089 -0.8662933127893543
lowerneck -6.097059697551006 1.6525925736510236 4.622568075202362
upperneck 18.44743170052332 3.156345906002484 -8.268460270616767
head 6.779818062193389 1.1632251662983455 -3.188516642743658
rclavicle -1.749779463402876E-16 -9.7070490553232E-16
rhumerus 22.213051874295324 15.941531654219025 -46.54979407739202
rradius 74.30103677213816
rwrist 27.886230307777446
rhand -34.85192492496271 -59.74137321094843
rfingers 7.12502
rthumb -8.011918046252562 -89.55401346775477
lclavicle -1.7318149025872716E-16 -9.483405935217496E-16
lhumerus 22.79128430076565 -12.794936553402376 43.63361517137176
lradius 71.31897556910536
lwrist -23.635372484747442
lhand -45.33587188783186 -73.19107342371932
lfingers 7.12502
lthumb -18.092848958976358 -43.97437513073544
rfemur -25.583021956070997 -2.1447161807818995 16.701675396742104
rtibia 54.67622119932607
rfoot -27.300649165243254 -16.454911774230638
rtoes -17.653387314647134
lfemur -21.815361269066308 1.2352205384906856 -18.17844159076614
ltibia 48.65973056452174
lfoot -23.742841354266673 -3.6056798816223306
ltoes -15.432256404512957
28
root 0 0 0 1.4266396870869054 -3.538299508007293 1.8912512705171187
lowerback 11.966963869304228 0.8925787745809113 -0.0989284848380022
upperback -4.434087857773566 1.1187317500626013 -0.6292797122853854
thorax -11.553907336109315 0.5138964221524787 -0.8680059525627216
lowerneck -6.096028523668007 1.6528425151504604 4.6235525593979485
upperneck 18.447403255861534 3.1568362906503586 -8.269261777636366
head 6.779669765239246 1.1634251745939128 -3.188928433844769
rclavicle -1.7446945595818665E-16 -9.704861911016877E-16
rhumerus 22.222956386264293 15.947564631575743 -46.54350856991177
rradius 74.30957897435582
rwrist 27.890678055450884
rhand -34.85512639029632 -59.75560866568698
rfingers 7.12502
rthumb -8.015057385802361 -89.56813312331843
lclavicle -1.7270937593028228E-16 -9.489963455412987E-16
lhumerus 22.794727433631916 -12.796064130571867 43.630944094785754
lradius 71.32188178853855
lwrist -23.6376405147481
lhand -45.33714049200714 -73.1988105697032
lfingers 7.12502
lthumb -18.094361120198418 -43.98070797125109
rfemur -25.583129965943325 -2.1449255919513313 16.701430318593097
rtibia 54.67683515296237
rfoot -27.3011921475391 -16.45462301375321
rtoes -17.653603798274972
lfemur -21.812559508794724 1.234446369661384 -18.178767437410123
ltibia 48.65587244984238
lfoot -23.74011267452439 -3.605358647250002
ltoes -15.429739873407918
29
root 0 0 0 1.4269029224580643 -3.539415183685836 1.8899464951048313
lowerback 11.96704912701648 0.8932293460046793 -0.09735983182930075
upperback -4.434463638796119 1.1197663433763207 -0.6293820430068972
thorax -11.554281179619148 0.5143631229955992 -0.8691497915057956
lowerneck -6.095533946688292 1.652925636461419 4.624084658485813
upperneck 18.447403488902157 3.157053213678458 -8.26962634939658
head 6.779609153304174 1.1635159785683191 -3.1891384501802835
rclavicle -1.7439088919846722E-16 -9.704757915671394E-16
rhumerus 22.22547563305791 15.949198135678957 -46.54194829483034
rradius 74.31191948636365
rwrist 27.891829543119147
rhand -34.855936276123956 -59.75953084163633
rfingers 7.12502
rthumb -8.01586405912956 -89.57206920660497
lclavicle -1.7272419295107235E-16 -9.489751707447202E-16
lhumerus 22.79407569986417 -12.795880319580185 43.631438388187576
lradius 71.32135269627403
lwrist -23.63726457726573
lhand -45.33689447583858 -73.19763334977567
lfingers 7.12502
lthumb -18.094115757846957 -43.97952839935546
rfemur -25.587156224824437 -2.146850550774386 16.698556771861956
rtibia 54.681238560655686
rfoot -27.30640065136039 -16.457451317787054
rtoes -17.65941271728989
lfemur -21.809265846735165 1.233538929300713 -18.179319230693718
ltibia 48.65072615365003
lfoot -23.73636789089307 -3.604855457280424
ltoes -15.426515070556427
